<mxfile host="app.diagrams.net" modified="2023-11-30T15:03:34.831Z" agent="Mozilla/5.0 (Windows NT 10.0; Win64; x64) AppleWebKit/537.36 (KHTML, like Gecko) Chrome/119.0.0.0 Safari/537.36 Edg/119.0.0.0" etag="RZzYelNS7PVYN-LMnyAG" version="22.1.5" type="github">
  <diagram id="C5RBs43oDa-KdzZeNtuy" name="Page-1">
    <mxGraphModel dx="1426" dy="793" grid="1" gridSize="10" guides="1" tooltips="1" connect="1" arrows="1" fold="1" page="1" pageScale="1" pageWidth="1169" pageHeight="827" math="0" shadow="0">
      <root>
        <mxCell id="WIyWlLk6GJQsqaUBKTNV-0" />
        <mxCell id="WIyWlLk6GJQsqaUBKTNV-1" parent="WIyWlLk6GJQsqaUBKTNV-0" />
        <mxCell id="TlhrCSe95SY9jLTqjl-a-0" value="START" style="strokeWidth=2;html=1;shape=mxgraph.flowchart.start_1;whiteSpace=wrap;fontSize=14;fillColor=#D5E8D4;" parent="WIyWlLk6GJQsqaUBKTNV-1" vertex="1">
          <mxGeometry x="30" y="40" width="100" height="60" as="geometry" />
        </mxCell>
        <mxCell id="TlhrCSe95SY9jLTqjl-a-4" value="" style="rounded=0;orthogonalLoop=1;jettySize=auto;html=1;fontSize=14;edgeStyle=orthogonalEdgeStyle;curved=1;" parent="WIyWlLk6GJQsqaUBKTNV-1" source="TlhrCSe95SY9jLTqjl-a-0" target="TlhrCSe95SY9jLTqjl-a-3" edge="1">
          <mxGeometry relative="1" as="geometry">
            <mxPoint x="340" y="103.48837209302326" as="sourcePoint" />
          </mxGeometry>
        </mxCell>
        <mxCell id="TlhrCSe95SY9jLTqjl-a-9" value="No" style="rounded=0;orthogonalLoop=1;jettySize=auto;html=1;fontSize=14;edgeStyle=orthogonalEdgeStyle;curved=1;" parent="WIyWlLk6GJQsqaUBKTNV-1" source="TlhrCSe95SY9jLTqjl-a-3" target="TlhrCSe95SY9jLTqjl-a-39" edge="1">
          <mxGeometry relative="1" as="geometry">
            <mxPoint x="395" y="80" as="targetPoint" />
          </mxGeometry>
        </mxCell>
        <mxCell id="TlhrCSe95SY9jLTqjl-a-12" value="Yes" style="rounded=0;orthogonalLoop=1;jettySize=auto;html=1;fontSize=14;edgeStyle=orthogonalEdgeStyle;curved=1;" parent="WIyWlLk6GJQsqaUBKTNV-1" source="TlhrCSe95SY9jLTqjl-a-3" target="2dVe8sMhS4PmmdCcYp6y-1" edge="1">
          <mxGeometry relative="1" as="geometry">
            <mxPoint x="176.69914877695146" y="249.80999999999995" as="targetPoint" />
          </mxGeometry>
        </mxCell>
        <mxCell id="TlhrCSe95SY9jLTqjl-a-3" value="Is there &lt;br&gt;an existing &lt;br&gt;approver with&lt;br&gt;&amp;nbsp;the role of &lt;br&gt;ADM?" style="rhombus;whiteSpace=wrap;html=1;strokeWidth=2;fontSize=14;fillColor=#FFF2CC;" parent="WIyWlLk6GJQsqaUBKTNV-1" vertex="1">
          <mxGeometry x="220" y="20" width="140" height="150" as="geometry" />
        </mxCell>
        <mxCell id="TlhrCSe95SY9jLTqjl-a-39" value="STOP" style="strokeWidth=2;html=1;shape=mxgraph.flowchart.start_1;whiteSpace=wrap;fontSize=14;fillColor=#F8CECC;" parent="WIyWlLk6GJQsqaUBKTNV-1" vertex="1">
          <mxGeometry x="530" y="30.000000000000057" width="100" height="60" as="geometry" />
        </mxCell>
        <mxCell id="2dVe8sMhS4PmmdCcYp6y-3" value="SET STATUSES" style="edgeStyle=orthogonalEdgeStyle;rounded=0;orthogonalLoop=1;jettySize=auto;html=1;curved=1;" edge="1" parent="WIyWlLk6GJQsqaUBKTNV-1" source="2dVe8sMhS4PmmdCcYp6y-1" target="2dVe8sMhS4PmmdCcYp6y-4">
          <mxGeometry relative="1" as="geometry">
            <mxPoint x="290" y="470" as="targetPoint" />
          </mxGeometry>
        </mxCell>
        <mxCell id="2dVe8sMhS4PmmdCcYp6y-1" value="Add a new &quot;fake&quot; approver in the queue in front of ADM approver called:&lt;br&gt;&lt;br&gt;&amp;nbsp;&lt;b&gt;Sector/Departmental Coordination&lt;/b&gt;" style="rounded=1;whiteSpace=wrap;html=1;fontSize=14;" vertex="1" parent="WIyWlLk6GJQsqaUBKTNV-1">
          <mxGeometry x="190" y="240" width="200" height="150" as="geometry" />
        </mxCell>
        <mxCell id="2dVe8sMhS4PmmdCcYp6y-7" value="No" style="edgeStyle=orthogonalEdgeStyle;rounded=0;orthogonalLoop=1;jettySize=auto;html=1;curved=1;" edge="1" parent="WIyWlLk6GJQsqaUBKTNV-1" source="2dVe8sMhS4PmmdCcYp6y-4" target="2dVe8sMhS4PmmdCcYp6y-5">
          <mxGeometry relative="1" as="geometry" />
        </mxCell>
        <mxCell id="2dVe8sMhS4PmmdCcYp6y-8" value="Yes" style="edgeStyle=orthogonalEdgeStyle;rounded=0;orthogonalLoop=1;jettySize=auto;html=1;curved=1;" edge="1" parent="WIyWlLk6GJQsqaUBKTNV-1" source="2dVe8sMhS4PmmdCcYp6y-4" target="2dVe8sMhS4PmmdCcYp6y-6">
          <mxGeometry relative="1" as="geometry" />
        </mxCell>
        <mxCell id="2dVe8sMhS4PmmdCcYp6y-4" value="Is the ADM &lt;br&gt;reviewer status&lt;br&gt;&amp;nbsp;set to&amp;nbsp;&lt;br&gt;&lt;b&gt;PENDING&lt;/b&gt;?" style="rhombus;whiteSpace=wrap;html=1;strokeWidth=2;fontSize=14;fillColor=#FFF2CC;" vertex="1" parent="WIyWlLk6GJQsqaUBKTNV-1">
          <mxGeometry x="240" y="480" width="140" height="150" as="geometry" />
        </mxCell>
        <mxCell id="2dVe8sMhS4PmmdCcYp6y-5" value="Set the &#39;fake&#39; approver&#39;s status to be equal to the ADM approver status" style="rounded=1;whiteSpace=wrap;html=1;fontSize=14;" vertex="1" parent="WIyWlLk6GJQsqaUBKTNV-1">
          <mxGeometry x="530" y="390" width="120" height="120" as="geometry" />
        </mxCell>
        <mxCell id="2dVe8sMhS4PmmdCcYp6y-10" style="edgeStyle=orthogonalEdgeStyle;rounded=0;orthogonalLoop=1;jettySize=auto;html=1;curved=1;" edge="1" parent="WIyWlLk6GJQsqaUBKTNV-1" source="2dVe8sMhS4PmmdCcYp6y-6" target="2dVe8sMhS4PmmdCcYp6y-9">
          <mxGeometry relative="1" as="geometry" />
        </mxCell>
        <mxCell id="2dVe8sMhS4PmmdCcYp6y-6" value="Look at the Trip Review" style="rounded=1;whiteSpace=wrap;html=1;fontSize=14;" vertex="1" parent="WIyWlLk6GJQsqaUBKTNV-1">
          <mxGeometry x="260" y="720" width="110" height="120" as="geometry" />
        </mxCell>
        <mxCell id="2dVe8sMhS4PmmdCcYp6y-12" value="Yes" style="edgeStyle=orthogonalEdgeStyle;rounded=0;orthogonalLoop=1;jettySize=auto;html=1;curved=1;" edge="1" parent="WIyWlLk6GJQsqaUBKTNV-1" source="2dVe8sMhS4PmmdCcYp6y-9" target="2dVe8sMhS4PmmdCcYp6y-11">
          <mxGeometry relative="1" as="geometry" />
        </mxCell>
        <mxCell id="2dVe8sMhS4PmmdCcYp6y-14" value="No" style="edgeStyle=orthogonalEdgeStyle;rounded=0;orthogonalLoop=1;jettySize=auto;html=1;curved=1;" edge="1" parent="WIyWlLk6GJQsqaUBKTNV-1" source="2dVe8sMhS4PmmdCcYp6y-9" target="2dVe8sMhS4PmmdCcYp6y-13">
          <mxGeometry relative="1" as="geometry" />
        </mxCell>
        <mxCell id="2dVe8sMhS4PmmdCcYp6y-9" value="is &lt;br&gt;the current &lt;br&gt;reviewer&#39;s role &lt;br&gt;equal to&amp;nbsp;&lt;br&gt;&lt;b style=&quot;border-color: var(--border-color);&quot;&gt;ADM&lt;/b&gt;?" style="rhombus;whiteSpace=wrap;html=1;strokeWidth=2;fontSize=14;fillColor=#FFF2CC;" vertex="1" parent="WIyWlLk6GJQsqaUBKTNV-1">
          <mxGeometry x="510" y="630" width="140" height="150" as="geometry" />
        </mxCell>
        <mxCell id="2dVe8sMhS4PmmdCcYp6y-11" value="Set &#39;fake&#39; approver&#39;s&lt;br&gt;status to &lt;b&gt;COMPLETE&lt;/b&gt;" style="rounded=1;whiteSpace=wrap;html=1;fontSize=14;" vertex="1" parent="WIyWlLk6GJQsqaUBKTNV-1">
          <mxGeometry x="700" y="480" width="110" height="120" as="geometry" />
        </mxCell>
        <mxCell id="2dVe8sMhS4PmmdCcYp6y-16" value="" style="edgeStyle=orthogonalEdgeStyle;rounded=0;orthogonalLoop=1;jettySize=auto;html=1;curved=1;" edge="1" parent="WIyWlLk6GJQsqaUBKTNV-1" source="2dVe8sMhS4PmmdCcYp6y-13" target="2dVe8sMhS4PmmdCcYp6y-15">
          <mxGeometry relative="1" as="geometry" />
        </mxCell>
        <mxCell id="2dVe8sMhS4PmmdCcYp6y-13" value="Leave the &#39;fake&#39; approver&#39;s&amp;nbsp;&lt;br style=&quot;border-color: var(--border-color);&quot;&gt;status to&amp;nbsp;&lt;b style=&quot;border-color: var(--border-color);&quot;&gt;PENDING&lt;/b&gt;" style="rounded=1;whiteSpace=wrap;html=1;fontSize=14;" vertex="1" parent="WIyWlLk6GJQsqaUBKTNV-1">
          <mxGeometry x="720" y="730" width="110" height="120" as="geometry" />
        </mxCell>
        <mxCell id="2dVe8sMhS4PmmdCcYp6y-15" value="set the ADM approver&#39;s&amp;nbsp;&lt;br style=&quot;border-color: var(--border-color);&quot;&gt;status to&amp;nbsp;&lt;b style=&quot;border-color: var(--border-color);&quot;&gt;QUEUED&lt;/b&gt;" style="rounded=1;whiteSpace=wrap;html=1;fontSize=14;" vertex="1" parent="WIyWlLk6GJQsqaUBKTNV-1">
          <mxGeometry x="910" y="730" width="110" height="120" as="geometry" />
        </mxCell>
      </root>
    </mxGraphModel>
  </diagram>
</mxfile>
